<svg width="54" height="54" viewBox="0 0 54 54" fill="none" xmlns="http://www.w3.org/2000/svg">
<circle opacity="0.2" cx="27" cy="27" r="27" fill="#1813D2"/>
<path d="M24.8486 27.3676V14.7188C24.8486 14.3964 24.587 14.1347 24.2646 14.1347C17.5015 14.1347 12 20.1607 12 27.5673C12 34.9739 18.026 41 25.4326 41C28.7464 41 30.5393 40.3996 32.8124 38.5307C33.0565 38.3298 33.0962 37.9712 32.9024 37.7213L24.8486 27.3676ZM25.4326 39.832C18.6696 39.832 13.168 34.3304 13.168 27.5674C13.168 21.0216 17.8321 15.6567 23.6805 15.3192V27.5674C23.6805 27.697 23.7237 27.8232 23.8043 27.926L31.6256 37.9818C29.7813 39.3904 28.243 39.832 25.4326 39.832Z" fill="#0D06FD" stroke="#0D06FD" stroke-width="0.7"/>
<path d="M28.0508 26.0167H40.8995C41.2219 26.0167 41.4835 25.755 41.4835 25.4326C41.4835 18.026 35.4574 12 28.0508 12C27.7285 12 27.4668 12.2617 27.4668 12.584V25.4327C27.4668 25.755 27.7285 26.0167 28.0508 26.0167ZM28.6348 13.1821C34.9342 13.4788 40.0047 18.5493 40.3014 24.8486H28.6348V13.1821Z" fill="#0D06FD" stroke="#0D06FD" stroke-width="0.7"/>
<path d="M41.6651 28.4333H29.9846C29.7603 28.4333 29.5536 28.563 29.4566 28.7662C29.3596 28.9695 29.3889 29.2101 29.5302 29.3841L37.1226 38.7834C37.2242 38.9107 37.3737 38.9878 37.5361 38.9995C37.5501 39.0007 37.5629 39.0007 37.577 39.0007C37.7241 39.0007 37.8667 38.9446 37.9753 38.8442C40.691 36.3107 42.2492 32.7294 42.2492 29.0174C42.2492 28.695 41.9875 28.4333 41.6651 28.4333ZM37.6272 37.5489L31.2075 29.6014H41.0671C40.9234 32.5706 39.6946 35.4101 37.6272 37.5489Z" fill="#0D06FD" stroke="#0D06FD" stroke-width="0.7"/>
</svg>
