<svg width="54" height="54" viewBox="0 0 54 54" fill="none" xmlns="http://www.w3.org/2000/svg">
<circle cx="27" cy="27" r="27" fill="#04040B"/>
<path d="M24.8487 27.3677V14.7188C24.8487 14.3964 24.587 14.1348 24.2646 14.1348C17.5016 14.1348 12.0001 20.1608 12.0001 27.5674C12.0001 34.974 18.0261 41.0001 25.4327 41.0001C28.7465 41.0001 30.5394 40.3997 32.8125 38.5308C33.0566 38.3299 33.0963 37.9713 32.9024 37.7213L24.8487 27.3677ZM25.4327 39.832C18.6696 39.832 13.1681 34.3305 13.1681 27.5674C13.1681 21.0217 17.8321 15.6568 23.6806 15.3192V27.5674C23.6806 27.6971 23.7238 27.8232 23.8044 27.926L31.6257 37.9818C29.7814 39.3905 28.243 39.832 25.4327 39.832Z" fill="white" stroke="white" stroke-width="0.7"/>
<path d="M28.0507 26.0167H40.8994C41.2217 26.0167 41.4834 25.755 41.4834 25.4326C41.4833 18.026 35.4573 12 28.0507 12C27.7283 12 27.4667 12.2617 27.4667 12.584V25.4327C27.4667 25.755 27.7283 26.0167 28.0507 26.0167ZM28.6347 13.1821C34.9341 13.4788 40.0046 18.5493 40.3012 24.8486H28.6347V13.1821Z" fill="white" stroke="white" stroke-width="0.7"/>
<path d="M41.6652 28.4333H29.9847C29.7604 28.4333 29.5537 28.563 29.4567 28.7662C29.3598 28.9695 29.389 29.2101 29.5303 29.3841L37.1227 38.7835C37.2243 38.9108 37.3738 38.9878 37.5362 38.9996C37.5502 39.0007 37.5631 39.0007 37.5771 39.0007C37.7243 39.0007 37.8668 38.9446 37.9754 38.8442C40.6911 36.3107 42.2493 32.7295 42.2493 29.0174C42.2493 28.695 41.9876 28.4333 41.6652 28.4333ZM37.6273 37.5489L31.2077 29.6014H41.0672C40.9236 32.5706 39.6948 35.4101 37.6273 37.5489Z" fill="white" stroke="white" stroke-width="0.7"/>
</svg>
