<svg width="54" height="54" viewBox="0 0 54 54" fill="none" xmlns="http://www.w3.org/2000/svg">
<circle opacity="0.2" cx="27" cy="27" r="27" fill="#1813D2"/>
<path d="M25.5942 16.342V23.2523C25.5942 24.5437 24.5437 25.5943 23.2522 25.5943H16.342C15.0506 25.5943 14 24.5437 14 23.2523V16.342C14 15.0506 15.0506 14 16.342 14H23.2523C24.5437 14 25.5942 15.0506 25.5942 16.342ZM24.3149 16.342C24.3149 15.756 23.8382 15.2793 23.2522 15.2793H16.342C15.756 15.2793 15.2793 15.756 15.2793 16.342V23.2523C15.2793 23.8383 15.756 24.315 16.342 24.315H23.2523C23.8382 24.315 24.315 23.8383 24.315 23.2523L24.3149 16.342ZM22.2644 32.63H18C17.6467 32.63 17.3603 32.9164 17.3603 33.2697C17.3603 33.6229 17.6467 33.9093 18 33.9093H22.2644C22.6176 33.9093 22.9041 33.6229 22.9041 33.2697C22.9041 32.9164 22.6176 32.63 22.2644 32.63ZM22.2644 35.4963H18C17.6467 35.4963 17.3603 35.7827 17.3603 36.136C17.3603 36.4892 17.6467 36.7756 18 36.7756H22.2644C22.6176 36.7756 22.9041 36.4892 22.9041 36.136C22.9041 35.7827 22.6176 35.4963 22.2644 35.4963ZM40.5 16.342V23.2523C40.5 24.5437 39.4494 25.5943 38.158 25.5943H31.2478C29.9563 25.5943 28.9058 24.5437 28.9058 23.2523V16.342C28.9058 15.0506 29.9563 14 31.2478 14H38.158C39.4494 14 40.5 15.0506 40.5 16.342ZM39.2207 16.342C39.2207 15.756 38.744 15.2793 38.158 15.2793H31.2478C30.6618 15.2793 30.1851 15.756 30.1851 16.342V23.2523C30.1851 23.8383 30.6618 24.315 31.2478 24.315H38.158C38.744 24.315 39.2207 23.8383 39.2207 23.2523L39.2207 16.342ZM25.5942 31.2477V38.158C25.5942 39.4494 24.5437 40.5 23.2522 40.5H16.342C15.0506 40.5 14 39.4494 14 38.158V31.2477C14 29.9563 15.0506 28.9057 16.342 28.9057H23.2523C24.5437 28.9057 25.5942 29.9563 25.5942 31.2477ZM24.3149 31.2477C24.3149 30.6617 23.8382 30.185 23.2522 30.185H16.342C15.7561 30.185 15.2793 30.6617 15.2793 31.2477V38.158C15.2793 38.744 15.756 39.2207 16.342 39.2207H23.2523C23.8382 39.2207 24.315 38.744 24.315 38.158L24.3149 31.2477ZM40.5 31.2477V38.158C40.5 39.4494 39.4494 40.5 38.158 40.5H31.2478C29.9563 40.5 28.9058 39.4494 28.9058 38.158V31.2477C28.9058 29.9563 29.9563 28.9057 31.2478 28.9057H38.158C39.4494 28.9057 40.5 29.9563 40.5 31.2477ZM39.2207 31.2477C39.2207 30.6617 38.744 30.185 38.158 30.185H31.2478C30.6618 30.185 30.1851 30.6617 30.1851 31.2477V38.158C30.1851 38.744 30.6618 39.2207 31.2478 39.2207H38.158C38.744 39.2207 39.2207 38.744 39.2207 38.158L39.2207 31.2477ZM36.8351 19.1575H32.5707C32.2174 19.1575 31.931 19.4439 31.931 19.7971C31.931 20.1504 32.2174 20.4368 32.5707 20.4368H36.8351C37.1883 20.4368 37.4747 20.1504 37.4747 19.7971C37.4747 19.4439 37.1883 19.1575 36.8351 19.1575Z" fill="#0D06FD" stroke="#0D06FD" stroke-width="0.5"/>
</svg>
