<svg width="73" height="83" viewBox="0 0 73 83" fill="none" xmlns="http://www.w3.org/2000/svg">
<path fill-rule="evenodd" clip-rule="evenodd" d="M38.08 64.8043L55.3899 54.8043L65.87 60.8543L38.08 76.8543V64.8043ZM30.27 44.5842V37.9143L36.03 34.5842L41.79 37.9143V44.5643L36.03 47.9143L30.27 44.5842ZM14.62 31.2742V51.2742L4.12997 57.3342V25.2142L14.62 31.2742ZM67.93 57.2742L57.44 51.2742V31.2742L67.93 25.2142V57.2742ZM18.72 51.2742V30.0842C18.7213 29.7264 18.6299 29.3744 18.4547 29.0624C18.2794 28.7504 18.0263 28.4892 17.72 28.3043L6.21997 21.6643L34.01 5.66426V31.0842L27.22 35.0043C26.9144 35.1876 26.6617 35.4471 26.4864 35.7573C26.3111 36.0676 26.2193 36.4179 26.22 36.7742V45.7742C26.2078 46.1368 26.2944 46.4957 26.4705 46.8128C26.6467 47.1299 26.9057 47.3931 27.22 47.5742L34.91 52.0142C35.2266 52.2372 35.6011 52.3634 35.9881 52.3776C36.3751 52.3918 36.7579 52.2934 37.09 52.0942L44.9 47.5842C45.2096 47.4055 45.4658 47.1471 45.6416 46.8358C45.8175 46.5245 45.9067 46.1718 45.9 45.8143V36.8143C45.9122 36.4518 45.8256 36.0927 45.6494 35.7756C45.4733 35.4586 45.2142 35.1954 44.9 35.0142L38.11 31.0942V5.61427L65.9 21.6143L54.3899 28.2642C54.0484 28.4659 53.7724 28.762 53.595 29.1168C53.4176 29.4715 53.3464 29.87 53.3899 30.2642V51.2642L36.07 61.2642L18.72 51.2742ZM1.22998 62.7243L34.84 82.1243C35.1576 82.3601 35.5381 82.4965 35.9333 82.5161C36.3285 82.5356 36.7205 82.4376 37.06 82.2343L71.03 62.6342C71.3387 62.4508 71.5965 62.1929 71.78 61.8842C71.9857 61.534 72.0798 61.1294 72.0499 60.7243V21.8543C72.0926 21.4292 71.9979 21.0016 71.78 20.6342C71.5668 20.2664 71.2456 19.9731 70.8599 19.7943L37.25 0.394236C36.9323 0.158369 36.5518 0.0220317 36.1566 0.00245124C35.7615 -0.0171292 35.3694 0.080942 35.03 0.284251L1.02996 19.9143C0.718659 20.0987 0.460307 20.3605 0.279963 20.6743C0.0762285 21.0217 -0.0178662 21.4225 0.00997384 21.8242V60.6943C-0.0326305 61.1194 0.0619779 61.5469 0.279963 61.9143C0.502089 62.2787 0.834992 62.5625 1.22998 62.7243ZM6.22998 60.8643L16.72 54.8043L34.02 64.8043V76.9143L6.22998 60.8643Z" fill="white"/>
</svg>
