<svg width="54" height="54" viewBox="0 0 54 54" fill="none" xmlns="http://www.w3.org/2000/svg">
<circle opacity="0.2" cx="27" cy="27" r="27" fill="#1813D2"/>
<path d="M30.5113 21.7054H23.8058C23.2148 21.7054 22.7358 22.1844 22.7358 22.7754C22.7358 23.3664 23.2148 23.8455 23.8058 23.8455H30.5113C31.1026 23.8455 31.5813 23.3665 31.5813 22.7754C31.5812 22.1844 31.1022 21.7054 30.5113 21.7054Z" fill="#0D06FD" stroke="#191A3B" stroke-width="0.3"/>
<path d="M33.0793 26.8772H23.8058C23.2148 26.8772 22.7358 27.3562 22.7358 27.9472C22.7358 28.5382 23.2148 29.0172 23.8058 29.0172H33.0793C33.6703 29.0172 34.1493 28.5382 34.1493 27.9472C34.1493 27.3562 33.6703 26.8772 33.0793 26.8772Z" fill="#0D06FD" stroke="#191A3B" stroke-width="0.3"/>
<path d="M37.93 15H18.9907C18.3997 15 17.9207 15.479 17.9207 16.07V26.1638H16.0304C13.8079 26.1638 12 27.9721 12 30.1942V36.1506C12 38.373 13.8079 40.181 16.0304 40.181C16.2123 40.181 16.3913 40.1688 16.5665 40.1453H34.2206C36.8557 40.1453 39 38.0014 39 35.366V16.07C39 15.479 38.521 15 37.93 15ZM17.9208 36.1506C17.9208 37.0676 17.2641 37.8345 16.3964 38.0053H16.0304V38.0409C14.9879 38.0409 14.1401 37.1927 14.1401 36.1505V30.1942C14.1401 29.152 14.9882 28.3038 16.0304 28.3038H17.9208V36.1506H17.9208ZM36.86 35.3659C36.86 36.7965 35.6516 38.0053 34.2206 38.0053H19.6081C19.8974 37.4499 20.0608 36.819 20.0608 36.1506V17.14H36.86V35.3659Z" fill="#0D06FD" stroke="#191A3B" stroke-width="0.3"/>
<path d="M30.5113 31.7282H23.8058C23.2148 31.7282 22.7358 32.2072 22.7358 32.7983C22.7358 33.3893 23.2148 33.8683 23.8058 33.8683H30.5113C31.1026 33.8683 31.5813 33.3893 31.5813 32.7983C31.5812 32.2072 31.1022 31.7282 30.5113 31.7282Z" fill="#0D06FD" stroke="#191A3B" stroke-width="0.3"/>
</svg>
