<svg width="56" height="56" viewBox="0 0 56 56" fill="none" xmlns="http://www.w3.org/2000/svg">
<path d="M55 28C55 42.9117 42.9117 55 28 55C13.0883 55 1 42.9117 1 28C1 13.0883 13.0883 1 28 1C42.9117 1 55 13.0883 55 28Z" fill="#04040B"/>
<path d="M31.5112 22.7054H24.8058C24.2148 22.7054 23.7358 23.1844 23.7358 23.7755C23.7358 24.3665 24.2148 24.8455 24.8058 24.8455H31.5112C32.1026 24.8455 32.5813 24.3665 32.5813 23.7755C32.5812 23.1844 32.1022 22.7054 31.5112 22.7054Z" fill="white"/>
<path d="M34.0793 27.8772H24.8058C24.2148 27.8772 23.7358 28.3561 23.7358 28.9472C23.7358 29.5382 24.2148 30.0172 24.8058 30.0172H34.0793C34.6702 30.0172 35.1493 29.5382 35.1493 28.9472C35.1493 28.3561 34.6702 27.8772 34.0793 27.8772Z" fill="white"/>
<path d="M38.93 16H19.9907C19.3997 16 18.9207 16.479 18.9207 17.07V27.1638H17.0304C14.8079 27.1638 13 28.9721 13 31.1942V37.1506C13 39.373 14.8079 41.181 17.0304 41.181C17.2123 41.181 17.3913 41.1689 17.5665 41.1453H35.2206C37.8557 41.1453 40 39.0014 40 36.366V17.07C40 16.479 39.521 16 38.93 16ZM18.9208 37.1506C18.9208 38.0676 18.2641 38.8345 17.3964 39.0053H17.0304V39.0409C15.9879 39.0409 15.1401 38.1927 15.1401 37.1505V31.1942C15.1401 30.152 15.9882 29.3038 17.0304 29.3038H18.9208L18.9208 37.1506ZM37.86 36.3659C37.86 37.7965 36.6516 39.0053 35.2206 39.0053H20.6081C20.8974 38.4499 21.0608 37.819 21.0608 37.1506V18.14H37.86V36.3659Z" fill="white"/>
<path d="M31.5112 32.7282H24.8058C24.2148 32.7282 23.7358 33.2072 23.7358 33.7983C23.7358 34.3893 24.2148 34.8683 24.8058 34.8683H31.5112C32.1026 34.8683 32.5813 34.3893 32.5813 33.7983C32.5812 33.2072 32.1022 32.7282 31.5112 32.7282Z" fill="white"/>
<path d="M32.5813 23.7755L32.7313 23.7755L32.7313 23.7754L32.5813 23.7755ZM18.9207 27.1638V27.3138H19.0707V27.1638H18.9207ZM17.5665 41.1453V40.9953H17.5565L17.5465 40.9967L17.5665 41.1453ZM18.9208 37.1506L18.7708 37.1506V37.1506H18.9208ZM17.3964 39.0053V39.1553H17.411L17.4253 39.1524L17.3964 39.0053ZM17.0304 39.0053V38.8553H16.8804V39.0053H17.0304ZM17.0304 39.0409V39.1909H17.1804V39.0409H17.0304ZM18.9208 29.3038L19.0708 29.3038L19.0708 29.1538H18.9208V29.3038ZM20.6081 39.0053L20.4751 38.936L20.3609 39.1553H20.6081V39.0053ZM21.0608 18.14V17.99H20.9108V18.14H21.0608ZM37.86 18.14H38.01V17.99H37.86V18.14ZM32.5813 33.7983L32.7313 33.7983L32.7313 33.7982L32.5813 33.7983ZM54.85 28C54.85 42.8288 42.8288 54.85 28 54.85V55.15C42.9945 55.15 55.15 42.9945 55.15 28H54.85ZM28 54.85C13.1712 54.85 1.15 42.8288 1.15 28H0.85C0.85 42.9945 13.0055 55.15 28 55.15V54.85ZM1.15 28C1.15 13.1712 13.1712 1.15 28 1.15V0.85C13.0055 0.85 0.85 13.0055 0.85 28H1.15ZM28 1.15C42.8288 1.15 54.85 13.1712 54.85 28H55.15C55.15 13.0055 42.9945 0.85 28 0.85V1.15ZM31.5112 22.5554H24.8058V22.8554H31.5112V22.5554ZM24.8058 22.5554C24.132 22.5554 23.5858 23.1016 23.5858 23.7755H23.8858C23.8858 23.2673 24.2976 22.8554 24.8058 22.8554V22.5554ZM23.5858 23.7755C23.5858 24.4493 24.1319 24.9955 24.8058 24.9955V24.6955C24.2976 24.6955 23.8858 24.2836 23.8858 23.7755H23.5858ZM24.8058 24.9955H31.5112V24.6955H24.8058V24.9955ZM31.5112 24.9955C32.1855 24.9955 32.7313 24.4493 32.7313 23.7755H32.4313C32.4313 24.2837 32.0197 24.6955 31.5112 24.6955V24.9955ZM32.7313 23.7754C32.7312 23.1016 32.1851 22.5554 31.5112 22.5554V22.8554C32.0194 22.8554 32.4312 23.2673 32.4313 23.7755L32.7313 23.7754ZM34.0793 27.7272H24.8058V28.0272H34.0793V27.7272ZM24.8058 27.7272C24.132 27.7272 23.5858 28.2733 23.5858 28.9472H23.8858C23.8858 28.439 24.2976 28.0272 24.8058 28.0272V27.7272ZM23.5858 28.9472C23.5858 29.621 24.1319 30.1672 24.8058 30.1672V29.8672C24.2976 29.8672 23.8858 29.4553 23.8858 28.9472H23.5858ZM24.8058 30.1672H34.0793V29.8672H24.8058V30.1672ZM34.0793 30.1672C34.7531 30.1672 35.2993 29.6211 35.2993 28.9472H34.9993C34.9993 29.4554 34.5874 29.8672 34.0793 29.8672V30.1672ZM35.2993 28.9472C35.2993 28.2733 34.7531 27.7272 34.0793 27.7272V28.0272C34.5874 28.0272 34.9993 28.439 34.9993 28.9472H35.2993ZM38.93 15.85H19.9907V16.15H38.93V15.85ZM19.9907 15.85C19.3169 15.85 18.7707 16.3961 18.7707 17.07H19.0707C19.0707 16.5618 19.4826 16.15 19.9907 16.15V15.85ZM18.7707 17.07V27.1638H19.0707V17.07H18.7707ZM18.9207 27.0138H17.0304V27.3138H18.9207V27.0138ZM17.0304 27.0138C14.7251 27.0138 12.85 28.8893 12.85 31.1942H13.15C13.15 29.055 14.8908 27.3138 17.0304 27.3138V27.0138ZM12.85 31.1942V37.1506H13.15V31.1942H12.85ZM12.85 37.1506C12.85 39.4559 14.7251 41.331 17.0304 41.331V41.031C14.8908 41.031 13.15 39.2902 13.15 37.1506H12.85ZM17.0304 41.331C17.2189 41.331 17.4047 41.3184 17.5864 41.294L17.5465 40.9967C17.378 41.0193 17.2056 41.031 17.0304 41.031V41.331ZM17.5665 41.2953H35.2206V40.9953H17.5665V41.2953ZM35.2206 41.2953C37.9386 41.2953 40.15 39.0842 40.15 36.366H39.85C39.85 38.9185 37.7729 40.9953 35.2206 40.9953V41.2953ZM40.15 36.366V17.07H39.85V36.366H40.15ZM40.15 17.07C40.15 16.3961 39.6039 15.85 38.93 15.85V16.15C39.4382 16.15 39.85 16.5618 39.85 17.07H40.15ZM18.7708 37.1506C18.7708 37.9944 18.1663 38.7008 17.3674 38.8581L17.4253 39.1524C18.3619 38.9681 19.0708 38.1407 19.0708 37.1506H18.7708ZM17.3964 38.8553H17.0304V39.1553H17.3964V38.8553ZM16.8804 39.0053V39.0409H17.1804V39.0053H16.8804ZM17.0304 38.8909C16.0707 38.8909 15.2901 38.1099 15.2901 37.1505H14.9901C14.9901 38.2756 15.905 39.1909 17.0304 39.1909V38.8909ZM15.2901 37.1505V31.1942H14.9901V37.1505H15.2901ZM15.2901 31.1942C15.2901 30.2349 16.0711 29.4538 17.0304 29.4538V29.1538C15.9054 29.1538 14.9901 30.0692 14.9901 31.1942H15.2901ZM17.0304 29.4538H18.9208V29.1538H17.0304V29.4538ZM18.7708 29.3038L18.7708 37.1506L19.0708 37.1506L19.0708 29.3038L18.7708 29.3038ZM37.71 36.3659C37.71 37.7137 36.5687 38.8553 35.2206 38.8553V39.1553C36.7344 39.1553 38.01 37.8794 38.01 36.3659H37.71ZM35.2206 38.8553H20.6081V39.1553H35.2206V38.8553ZM20.7412 39.0746C21.0413 38.4983 21.2108 37.8437 21.2108 37.1506H20.9108C20.9108 37.7942 20.7535 38.4015 20.4751 38.936L20.7412 39.0746ZM21.2108 37.1506V18.14H20.9108V37.1506H21.2108ZM21.0608 18.29H37.86V17.99H21.0608V18.29ZM37.71 18.14V36.3659H38.01V18.14H37.71ZM31.5112 32.5782H24.8058V32.8782H31.5112V32.5782ZM24.8058 32.5782C24.132 32.5782 23.5858 33.1244 23.5858 33.7983H23.8858C23.8858 33.2901 24.2976 32.8782 24.8058 32.8782V32.5782ZM23.5858 33.7983C23.5858 34.4721 24.1319 35.0183 24.8058 35.0183V34.7183C24.2976 34.7183 23.8858 34.3064 23.8858 33.7983H23.5858ZM24.8058 35.0183H31.5112V34.7183H24.8058V35.0183ZM31.5112 35.0183C32.1855 35.0183 32.7313 34.4721 32.7313 33.7983H32.4313C32.4313 34.3065 32.0197 34.7183 31.5112 34.7183V35.0183ZM32.7313 33.7982C32.7312 33.1244 32.1851 32.5782 31.5112 32.5782V32.8782C32.0194 32.8782 32.4312 33.2901 32.4313 33.7983L32.7313 33.7982Z" fill="#0D0E18"/>
</svg>
