<svg width="54" height="54" viewBox="0 0 54 54" fill="none" xmlns="http://www.w3.org/2000/svg">
<circle cx="27" cy="27" r="27" fill="#04040B"/>
<path d="M14.0819 24.3685C13.9157 23.9674 14.0076 23.5057 14.3145 23.1987L19.1987 18.3145C19.6181 17.8952 20.2977 17.8952 20.717 18.3145C21.1362 18.7337 21.1362 19.4135 20.717 19.8327L17.6655 22.8842H38.2629C38.8558 22.8842 39.3365 23.3648 39.3365 23.9578C39.3365 24.5507 38.8558 25.0313 38.2629 25.0313H15.0737C14.6395 25.0313 14.2481 24.7697 14.0819 24.3685ZM38.2628 28.3311H15.0736C14.4807 28.3311 14 28.8117 14 29.4047C14 29.9977 14.4807 30.4783 15.0736 30.4783H35.671L32.6194 33.5298C32.2003 33.9489 32.2002 34.6288 32.6194 35.0479C32.8291 35.2576 33.1038 35.3624 33.3786 35.3624C33.6533 35.3624 33.9281 35.2576 34.1377 35.0479L39.022 30.1637C39.3289 29.8568 39.4208 29.395 39.2546 28.9939C39.0884 28.5928 38.6971 28.3311 38.2628 28.3311Z" fill="white" stroke="white" stroke-width="0.4"/>
</svg>
